# xmcd
#
# Track frame offsets:
# 150
# 19062
# 42780
# 60407
# 82170
# 105867
# 120152
# 137905
# 158785
# 185762
#
# Disc length: 3383 seconds
#
#
# Revision: 3
# Processed by: cddbd v1.5.2PL0 Copyright (c) Steve Scherf et al.
# Submitted via: FreeRIP 2.945 
#
DISCID=770d350a
DTITLE=Five Horse Johnson - Fat Black Pussy Cat
DYEAR=1999
DGENRE=Stoner Rock
TTITLE0=Lightning When I Need
TTITLE1=Fly Back Home
TTITLE2=So Low
TTITLE3=She Don't Know
TTITLE4=Sermons In The Yard
TTITLE5=Say We Can
TTITLE6=Bleachin' Bones
TTITLE7=Climb Right Through
TTITLE8=I Cried
TTITLE9=Dead Language
EXTD=YEAR: 1999
EXTT0=
EXTT1=
EXTT2=
EXTT3=
EXTT4=
EXTT5=
EXTT6=
EXTT7=
EXTT8=
EXTT9=
PLAYORDER=
